<svg xmlns="http://www.w3.org/2000/svg" viewBox="0 0 220 260" role="img" aria-labelledby="title desc">
  <title id="title">Escudo Colegio Imperial</title>
  <desc id="desc">Escudo dorado con bordes azules, laureles y una I clásica al centro para Colegio Imperial.</desc>
  <defs>
    <linearGradient id="gold" x1="24" y1="23" x2="197" y2="244" gradientUnits="userSpaceOnUse">
      <stop stop-color="#F4D989"/>
      <stop offset="1" stop-color="#C99637"/>
    </linearGradient>
    <linearGradient id="blue" x1="30" y1="15" x2="188" y2="238" gradientUnits="userSpaceOnUse">
      <stop stop-color="#4967A9"/>
      <stop offset="1" stop-color="#253B72"/>
    </linearGradient>
    <filter id="shadow" x="5" y="3" width="210" height="255" color-interpolation-filters="sRGB" filterUnits="userSpaceOnUse">
      <feGaussianBlur in="SourceAlpha" stdDeviation="3"/>
      <feOffset dy="3"/>
      <feComponentTransfer><feFuncA type="linear" slope=".2"/></feComponentTransfer>
      <feMerge><feMergeNode/><feMergeNode in="SourceGraphic"/></feMerge>
    </filter>
  </defs>
  <g filter="url(#shadow)">
    <path d="M110 12 202 38v79c0 62-35 105-92 132-57-27-92-70-92-132V38l92-26Z" fill="url(#blue)" stroke="#17264D" stroke-width="5"/>
    <path d="M110 25 190 48v69c0 54-29 91-80 117-51-26-80-63-80-117V48l80-23Z" fill="url(#gold)" stroke="#F4E0A2" stroke-width="3"/>
    <path d="M110 32 184 53v64c0 49-26 83-74 108-48-25-74-59-74-108V53l74-21Z" fill="none" stroke="#A8752D" stroke-opacity=".55" stroke-width="2"/>

    <g fill="#71502A" stroke="#4F3820" stroke-linecap="round" stroke-linejoin="round" stroke-width="1.4">
      <path d="M76 207C51 180 43 145 48 109c3-19 10-35 21-48" fill="none" stroke-width="4"/>
      <path d="M56 164c-13 2-23-4-29-16 14-1 24 4 29 16Zm-4-22c-14-2-22-10-24-23 13 2 21 9 24 23Zm1-23c-13-5-19-15-17-28 12 5 18 15 17 28Zm6-23c-11-8-14-19-9-31 10 8 13 18 9 31Zm11-21c-8-11-8-22 0-33 7 10 7 21 0 33Zm-8 100c-13 1-22-4-27-16 13 0 22 5 27 16Zm8 20c-12 4-22 1-30-10 13-3 23 0 30 10Z"/>
      <path d="M144 207c25-27 33-62 28-98-3-19-10-35-21-48" fill="none" stroke-width="4"/>
      <path d="M164 164c13 2 23-4 29-16-14-1-24 4-29 16Zm4-22c14-2 22-10 24-23-13 2-21 9-24 23Zm-1-23c13-5 19-15 17-28-12 5-18 15-17 28Zm-6-23c11-8 14-19 9-31-10 8-13 18-9 31Zm-11-21c8-11 8-22 0-33-7 10-7 21 0 33Zm8 100c13 1 22-4 27-16-13 0-22 5-27 16Zm-8 20c12 4 22 1 30-10-13-3-23 0-30 10Z"/>
    </g>

    <path d="M86 82h48v12h-17v72h17v12H86v-12h17V94H86V82Z" fill="#68451F" stroke="#F9E7B0" stroke-width="2"/>
    <path d="M76 190c20 11 37 16 52 16s32-5 52-16" fill="none" stroke="#8B632D" stroke-linecap="round" stroke-width="3"/>
  </g>
</svg>
